<svg width="24" height="24" viewBox="0 0 24 24" fill="none" xmlns="http://www.w3.org/2000/svg">
<path d="M20.3437 17.1562H18.6961C18.5836 17.1562 18.4781 17.2054 18.4078 17.2922C18.2437 17.4914 18.0679 17.6836 17.8828 17.8664C17.1255 18.6244 16.2285 19.2285 15.2414 19.6453C14.2187 20.0772 13.1195 20.2988 12.0093 20.2968C10.8867 20.2968 9.79919 20.0765 8.77732 19.6453C7.79019 19.2285 6.89319 18.6244 6.13591 17.8664C5.37727 17.1109 4.77236 16.2155 4.35466 15.2297C3.92107 14.2078 3.7031 13.1226 3.7031 12C3.7031 10.8773 3.92341 9.79216 4.35466 8.77029C4.77185 7.78357 5.37185 6.89529 6.13591 6.13357C6.89997 5.37185 7.78825 4.77185 8.77732 4.35466C9.79919 3.92341 10.8867 3.7031 12.0093 3.7031C13.132 3.7031 14.2195 3.92107 15.2414 4.35466C16.2304 4.77185 17.1187 5.37185 17.8828 6.13357C18.0679 6.31872 18.2414 6.51091 18.4078 6.70779C18.4781 6.79451 18.5859 6.84372 18.6961 6.84372H20.3437C20.4914 6.84372 20.5828 6.67966 20.5008 6.55544C18.7031 3.76169 15.5578 1.91247 11.9836 1.92185C6.36794 1.93591 1.8656 6.49451 1.92185 12.1031C1.9781 17.6226 6.47341 22.0781 12.0093 22.0781C15.5742 22.0781 18.7054 20.2312 20.5008 17.4445C20.5804 17.3203 20.4914 17.1562 20.3437 17.1562ZM22.4273 11.8523L19.1015 9.22732C18.9773 9.12888 18.7968 9.21794 18.7968 9.37497V11.1562H11.4375C11.3343 11.1562 11.25 11.2406 11.25 11.3437V12.6562C11.25 12.7593 11.3343 12.8437 11.4375 12.8437H18.7968V14.625C18.7968 14.782 18.9797 14.8711 19.1015 14.7726L22.4273 12.1476C22.4497 12.1301 22.4678 12.1077 22.4803 12.0821C22.4928 12.0565 22.4993 12.0284 22.4993 12C22.4993 11.9715 22.4928 11.9434 22.4803 11.9178C22.4678 11.8923 22.4497 11.8699 22.4273 11.8523Z" fill="white"/>
</svg>
