<svg width="24" height="25" viewBox="0 0 24 25" fill="none" xmlns="http://www.w3.org/2000/svg">
<g clip-path="url(#clip0_242_4919)">
<path d="M24 18.9336V24.5H18V21.5H15V18.5H12V16.0742C11.4219 16.3789 10.8164 16.6094 10.1836 16.7656C9.55078 16.9219 8.90625 17 8.25 17C7.49219 17 6.76172 16.9023 6.05859 16.707C5.35547 16.5117 4.69922 16.2344 4.08984 15.875C3.48047 15.5156 2.92578 15.0859 2.42578 14.5859C1.92578 14.0859 1.49219 13.5273 1.125 12.9102C0.757812 12.293 0.480469 11.6367 0.292969 10.9414C0.105469 10.2461 0.0078125 9.51562 0 8.75C0 7.99219 0.0976563 7.26172 0.292969 6.55859C0.488281 5.85547 0.765625 5.19922 1.125 4.58984C1.48438 3.98047 1.91406 3.42578 2.41406 2.92578C2.91406 2.42578 3.47266 1.99219 4.08984 1.625C4.70703 1.25781 5.36328 0.980469 6.05859 0.792969C6.75391 0.605469 7.48438 0.507812 8.25 0.5C9.00781 0.5 9.73828 0.597656 10.4414 0.792969C11.1445 0.988281 11.8008 1.26562 12.4102 1.625C13.0195 1.98438 13.5742 2.41406 14.0742 2.91406C14.5742 3.41406 15.0078 3.97266 15.375 4.58984C15.7422 5.20703 16.0195 5.86328 16.207 6.55859C16.3945 7.25391 16.4922 7.98438 16.5 8.75C16.5 9.14844 16.4688 9.54297 16.4062 9.93359C16.3438 10.3242 16.2539 10.707 16.1367 11.082L24 18.9336ZM6 8.75C6.3125 8.75 6.60547 8.69141 6.87891 8.57422C7.15234 8.45703 7.39062 8.29688 7.59375 8.09375C7.79688 7.89062 7.95703 7.65234 8.07422 7.37891C8.19141 7.10547 8.25 6.8125 8.25 6.5C8.25 6.1875 8.19141 5.89453 8.07422 5.62109C7.95703 5.34766 7.79688 5.10938 7.59375 4.90625C7.39062 4.70312 7.15234 4.54297 6.87891 4.42578C6.60547 4.30859 6.3125 4.25 6 4.25C5.6875 4.25 5.39453 4.30859 5.12109 4.42578C4.84766 4.54297 4.60938 4.70312 4.40625 4.90625C4.20312 5.10938 4.04297 5.34766 3.92578 5.62109C3.80859 5.89453 3.75 6.1875 3.75 6.5C3.75 6.8125 3.80859 7.10547 3.92578 7.37891C4.04297 7.65234 4.20312 7.89062 4.40625 8.09375C4.60938 8.29688 4.84766 8.45703 5.12109 8.57422C5.39453 8.69141 5.6875 8.75 6 8.75Z" fill="white"/>
</g>
<defs>
<clipPath id="clip0_242_4919">
<rect width="24" height="24" fill="white" transform="translate(0 0.5)"/>
</clipPath>
</defs>
</svg>
