<svg width="24" height="24" viewBox="0 0 24 24" fill="none" xmlns="http://www.w3.org/2000/svg">
<path d="M12 2C6.477 2 2 6.477 2 12C2 17.523 6.477 22 12 22C17.523 22 22 17.523 22 12C22 6.477 17.523 2 12 2ZM13 18H11V16H13V18ZM13 13.859V15H11V13C11 12.7348 11.1054 12.4804 11.2929 12.2929C11.4804 12.1054 11.7348 12 12 12C13.103 12 14 11.103 14 10C14 8.897 13.103 8 12 8C10.897 8 10 8.897 10 10H8C8 8.93913 8.42143 7.92172 9.17157 7.17157C9.92172 6.42143 10.9391 6 12 6C13.0609 6 14.0783 6.42143 14.8284 7.17157C15.5786 7.92172 16 8.93913 16 10C15.9984 10.8848 15.7029 11.744 15.1599 12.4425C14.6168 13.141 13.8571 13.6393 13 13.859Z" fill="white"/>
</svg>
