<svg width="26" height="26" viewBox="0 0 26 26" fill="none" xmlns="http://www.w3.org/2000/svg">
<circle cx="13" cy="13" r="13" fill="#CEA204" fill-opacity="0.2"/>
<path d="M16.06 11H15V7.66667C15 7.3 14.7 7 14.3333 7H11.6666C11.3 7 11 7.3 11 7.66667V11H9.93998C9.34665 11 9.04665 11.72 9.46665 12.14L12.5266 15.2C12.7866 15.46 13.2066 15.46 13.4666 15.2L16.5266 12.14C16.9466 11.72 16.6533 11 16.06 11ZM8.33331 17.6667C8.33331 18.0333 8.63331 18.3333 8.99998 18.3333H17C17.3666 18.3333 17.6666 18.0333 17.6666 17.6667C17.6666 17.3 17.3666 17 17 17H8.99998C8.63331 17 8.33331 17.3 8.33331 17.6667Z" fill="#CEA204"/>
</svg>
