<svg width="70" height="70" viewBox="0 0 70 70" fill="none" xmlns="http://www.w3.org/2000/svg">
<circle cx="35" cy="35" r="35" fill="white"/>
<path d="M35 21.6666C36.7681 21.6666 38.4638 22.369 39.7141 23.6192C40.9643 24.8695 41.6667 26.5652 41.6667 28.3333C41.6667 30.1014 40.9643 31.7971 39.7141 33.0473C38.4638 34.2976 36.7681 35 35 35C33.2319 35 31.5362 34.2976 30.286 33.0473C29.0357 31.7971 28.3334 30.1014 28.3334 28.3333C28.3334 26.5652 29.0357 24.8695 30.286 23.6192C31.5362 22.369 33.2319 21.6666 35 21.6666ZM35 38.3333C42.3667 38.3333 48.3334 41.3166 48.3334 45V48.3333H21.6667V45C21.6667 41.3166 27.6334 38.3333 35 38.3333Z" fill="#2F6967"/>
</svg>
