<svg width="70" height="70" viewBox="0 0 70 70" fill="none" xmlns="http://www.w3.org/2000/svg">
<circle cx="35" cy="35" r="35" fill="white"/>
<path fill-rule="evenodd" clip-rule="evenodd" d="M28.75 25.025V23.3334C28.75 21.6758 29.4085 20.0861 30.5806 18.914C31.7527 17.7419 33.3424 17.0834 35 17.0834C36.6576 17.0834 38.2473 17.7419 39.4194 18.914C40.5915 20.0861 41.25 21.6758 41.25 23.3334V25.025C43.395 25.09 44.7083 25.32 45.71 26.1517C47.0983 27.305 47.465 29.255 48.1967 33.1567L49.4467 39.8234C50.475 45.31 50.9883 48.0534 49.49 49.86C47.99 51.6667 45.1983 51.6667 39.6167 51.6667H30.3833C24.8 51.6667 22.01 51.6667 20.51 49.86C19.01 48.0534 19.5267 45.31 20.5533 39.8234L21.8033 33.1567C22.5367 29.2567 22.9017 27.305 24.29 26.1517C25.2917 25.32 26.605 25.09 28.75 25.025ZM31.25 23.3334C31.25 22.3388 31.6451 21.385 32.3484 20.6817C33.0516 19.9785 34.0054 19.5834 35 19.5834C35.9946 19.5834 36.9484 19.9785 37.6517 20.6817C38.3549 21.385 38.75 22.3388 38.75 23.3334V25H31.25V23.3334ZM41.2333 33.1284C41.2064 32.9664 41.1479 32.8113 41.061 32.672C40.9741 32.5327 40.8607 32.4118 40.7271 32.3163C40.5936 32.2208 40.4425 32.1526 40.2826 32.1155C40.1226 32.0784 39.957 32.0731 39.795 32.1C39.633 32.127 39.478 32.1855 39.3386 32.2724C39.1993 32.3592 39.0784 32.4727 38.9829 32.6062C38.8875 32.7398 38.8192 32.8909 38.7821 33.0508C38.745 33.2107 38.7397 33.3764 38.7667 33.5384L40.4333 43.5384C40.4603 43.7003 40.5188 43.8554 40.6057 43.9947C40.6925 44.1341 40.806 44.2549 40.9395 44.3504C41.0731 44.4459 41.2241 44.5142 41.3841 44.5513C41.544 44.5884 41.7097 44.5936 41.8717 44.5667C42.0336 44.5398 42.1887 44.4812 42.328 44.3944C42.4674 44.3075 42.5882 44.1941 42.6837 44.0605C42.7792 43.927 42.8475 43.7759 42.8846 43.616C42.9217 43.456 42.9269 43.2903 42.9 43.1284L41.2333 33.1284ZM30.205 32.1C30.043 32.0731 29.8773 32.0783 29.7174 32.1154C29.5574 32.1525 29.4064 32.2207 29.2728 32.3162C29.1392 32.4117 29.0258 32.5326 28.9389 32.672C28.8521 32.8113 28.7936 32.9664 28.7667 33.1284L27.1 43.1284C27.0731 43.2903 27.0783 43.456 27.1154 43.616C27.1525 43.7759 27.2208 43.927 27.3163 44.0605C27.4118 44.1941 27.5326 44.3075 27.672 44.3944C27.8113 44.4812 27.9664 44.5398 28.1283 44.5667C28.2903 44.5936 28.456 44.5884 28.6159 44.5513C28.7759 44.5142 28.9269 44.4459 29.0605 44.3504C29.194 44.2549 29.3075 44.1341 29.3943 43.9947C29.4812 43.8554 29.5397 43.7003 29.5667 43.5384L31.2333 33.5384C31.2603 33.3764 31.2551 33.2107 31.218 33.0508C31.1809 32.8908 31.1126 32.7397 31.0171 32.6062C30.9216 32.4726 30.8008 32.3592 30.6614 32.2723C30.5221 32.1855 30.367 32.1269 30.205 32.1Z" fill="#04649B"/>
</svg>
