<svg width="26" height="26" viewBox="0 0 26 26" fill="none" xmlns="http://www.w3.org/2000/svg">
<circle cx="13" cy="13" r="13" fill="#00AB7F" fill-opacity="0.2"/>
<path d="M13 11C12.4696 11 11.9609 11.2107 11.5858 11.5858C11.2107 11.9609 11 12.4696 11 13C11 13.5304 11.2107 14.0391 11.5858 14.4142C11.9609 14.7893 12.4696 15 13 15C13.5305 15 14.0392 14.7893 14.4142 14.4142C14.7893 14.0391 15 13.5304 15 13C15 12.4696 14.7893 11.9609 14.4142 11.5858C14.0392 11.2107 13.5305 11 13 11ZM13 16.3333C12.116 16.3333 11.2681 15.9821 10.643 15.357C10.0179 14.7319 9.66669 13.8841 9.66669 13C9.66669 12.1159 10.0179 11.2681 10.643 10.643C11.2681 10.0179 12.116 9.66667 13 9.66667C13.8841 9.66667 14.7319 10.0179 15.357 10.643C15.9822 11.2681 16.3334 12.1159 16.3334 13C16.3334 13.8841 15.9822 14.7319 15.357 15.357C14.7319 15.9821 13.8841 16.3333 13 16.3333ZM13 8C9.66669 8 6.82002 10.0733 5.66669 13C6.82002 15.9267 9.66669 18 13 18C16.3334 18 19.18 15.9267 20.3334 13C19.18 10.0733 16.3334 8 13 8Z" fill="#00AB7F"/>
</svg>
