<svg width="70" height="70" viewBox="0 0 70 70" fill="none" xmlns="http://www.w3.org/2000/svg">
<circle cx="35" cy="35" r="35" fill="white"/>
<path d="M27.375 30.7917L33.5833 20.6667C33.75 20.3889 33.9583 20.1872 34.2083 20.0617C34.4583 19.9361 34.7222 19.8739 35 19.875C35.2778 19.875 35.5417 19.9378 35.7917 20.0633C36.0417 20.1889 36.25 20.39 36.4167 20.6667L42.625 30.7917C42.7917 31.0695 42.875 31.3611 42.875 31.6667C42.875 31.9722 42.8056 32.25 42.6667 32.5C42.5278 32.75 42.3333 32.9517 42.0833 33.105C41.8333 33.2583 41.5417 33.3345 41.2083 33.3333H28.7917C28.4583 33.3333 28.1667 33.2572 27.9167 33.105C27.6667 32.9528 27.4722 32.7511 27.3333 32.5C27.1944 32.25 27.125 31.9722 27.125 31.6667C27.125 31.3611 27.2083 31.0695 27.375 30.7917ZM44.1667 51.6667C42.0833 51.6667 40.3128 50.9378 38.855 49.48C37.3972 48.0222 36.6678 46.2511 36.6667 44.1667C36.6667 42.0833 37.3961 40.3128 38.855 38.855C40.3139 37.3972 42.0844 36.6678 44.1667 36.6667C46.25 36.6667 48.0211 37.3961 49.48 38.855C50.9389 40.3139 51.6678 42.0845 51.6667 44.1667C51.6667 46.25 50.9378 48.0211 49.48 49.48C48.0222 50.9389 46.2511 51.6678 44.1667 51.6667ZM20 49.1667V39.1667C20 38.6945 20.16 38.2989 20.48 37.98C20.8 37.6611 21.1956 37.5011 21.6667 37.5H31.6667C32.1389 37.5 32.535 37.66 32.855 37.98C33.175 38.3 33.3344 38.6956 33.3333 39.1667V49.1667C33.3333 49.6389 33.1733 50.035 32.8533 50.355C32.5333 50.675 32.1378 50.8345 31.6667 50.8333H21.6667C21.1944 50.8333 20.7989 50.6733 20.48 50.3533C20.1611 50.0333 20.0011 49.6378 20 49.1667Z" fill="#023B5B"/>
</svg>
