<svg width="22" height="23" viewBox="0 0 22 23" fill="none" xmlns="http://www.w3.org/2000/svg">
<path d="M15.2075 8.5H13.75V3.91667C13.75 3.4125 13.3375 3 12.8333 3H9.16668C8.66251 3 8.25001 3.4125 8.25001 3.91667V8.5H6.79251C5.97668 8.5 5.56418 9.49 6.14168 10.0675L10.3492 14.275C10.7067 14.6325 11.2842 14.6325 11.6417 14.275L15.8492 10.0675C16.4267 9.49 16.0233 8.5 15.2075 8.5ZM4.58334 17.6667C4.58334 18.1708 4.99584 18.5833 5.50001 18.5833H16.5C17.0042 18.5833 17.4167 18.1708 17.4167 17.6667C17.4167 17.1625 17.0042 16.75 16.5 16.75H5.50001C4.99584 16.75 4.58334 17.1625 4.58334 17.6667Z" fill="white"/>
</svg>
