<svg width="24" height="24" viewBox="0 0 24 24" fill="none" xmlns="http://www.w3.org/2000/svg">
<path d="M9 11C10.0609 11 11.0783 10.5786 11.8284 9.82843C12.5786 9.07828 13 8.06087 13 7C13 5.93913 12.5786 4.92172 11.8284 4.17157C11.0783 3.42143 10.0609 3 9 3C7.93913 3 6.92172 3.42143 6.17157 4.17157C5.42143 4.92172 5 5.93913 5 7C5 8.06087 5.42143 9.07828 6.17157 9.82843C6.92172 10.5786 7.93913 11 9 11Z" stroke="white" stroke-width="1.5" stroke-linecap="round" stroke-linejoin="round"/>
<path d="M2 18C2.00002 16.6861 2.36983 15.3987 3.06714 14.2851C3.76444 13.1715 4.76109 12.2767 5.94309 11.7029C7.12508 11.1291 8.44471 10.8996 9.75103 11.0405C11.0574 11.1815 12.2976 11.6873 13.33 12.5M17 13H19M21.364 16.707L21.66 18.707C21.7021 18.9913 21.6824 19.2813 21.6024 19.5573C21.5223 19.8333 21.3837 20.0888 21.196 20.3064C21.0083 20.524 20.7759 20.6986 20.5146 20.8183C20.2534 20.938 19.9694 21 19.682 21H16.318C16.0306 21 15.7466 20.938 15.4854 20.8183C15.2241 20.6986 14.9917 20.524 14.804 20.3064C14.6163 20.0888 14.4777 19.8333 14.3976 19.5573C14.3176 19.2813 14.2979 18.9913 14.34 18.707L14.636 16.707C14.7063 16.2326 14.9447 15.7992 15.3077 15.4859C15.6708 15.1726 16.1344 15.0001 16.614 15H19.386C19.8656 15.0001 20.3292 15.1726 20.6923 15.4859C21.0553 15.7992 21.2937 16.2326 21.364 16.707Z" stroke="white" stroke-width="1.5" stroke-linecap="round" stroke-linejoin="round"/>
</svg>
