<svg width="24" height="24" viewBox="0 0 24 24" fill="none" xmlns="http://www.w3.org/2000/svg">
<path fill-rule="evenodd" clip-rule="evenodd" d="M8.24999 6.015V5C8.24999 4.00544 8.64508 3.05161 9.34834 2.34835C10.0516 1.64509 11.0054 1.25 12 1.25C12.9945 1.25 13.9484 1.64509 14.6516 2.34835C15.3549 3.05161 15.75 4.00544 15.75 5V6.015C17.037 6.054 17.825 6.192 18.426 6.691C19.259 7.383 19.479 8.553 19.918 10.894L20.668 14.894C21.285 18.186 21.593 19.832 20.694 20.916C19.794 22 18.119 22 14.77 22H9.22999C5.87999 22 4.20599 22 3.30599 20.916C2.40599 19.832 2.71599 18.186 3.33199 14.894L4.08199 10.894C4.52199 8.554 4.74099 7.383 5.57399 6.691C6.17499 6.192 6.96299 6.054 8.24999 6.015ZM9.74999 5C9.74999 4.40326 9.98704 3.83097 10.409 3.40901C10.831 2.98705 11.4033 2.75 12 2.75C12.5967 2.75 13.169 2.98705 13.591 3.40901C14.0129 3.83097 14.25 4.40326 14.25 5V6H9.74999V5ZM15.74 10.877C15.7238 10.7798 15.6887 10.6868 15.6366 10.6032C15.5845 10.5196 15.5164 10.4471 15.4363 10.3898C15.3561 10.3325 15.2655 10.2915 15.1695 10.2693C15.0736 10.247 14.9742 10.2438 14.877 10.26C14.7798 10.2762 14.6868 10.3113 14.6032 10.3634C14.5196 10.4155 14.447 10.4836 14.3898 10.5637C14.3325 10.6439 14.2915 10.7345 14.2692 10.8305C14.247 10.9264 14.2438 11.0258 14.26 11.123L15.26 17.123C15.2761 17.2202 15.3113 17.3132 15.3634 17.3968C15.4155 17.4804 15.4836 17.5529 15.5637 17.6102C15.6438 17.6675 15.7345 17.7085 15.8304 17.7307C15.9264 17.753 16.0258 17.7562 16.123 17.74C16.2202 17.7238 16.3132 17.6887 16.3968 17.6366C16.4804 17.5845 16.5529 17.5164 16.6102 17.4363C16.6675 17.3561 16.7085 17.2655 16.7307 17.1695C16.753 17.0736 16.7561 16.9742 16.74 16.877L15.74 10.877ZM9.12299 10.26C9.02581 10.2438 8.92639 10.247 8.83042 10.2692C8.73445 10.2915 8.64381 10.3324 8.56367 10.3897C8.48352 10.447 8.41546 10.5195 8.36335 10.6031C8.31124 10.6868 8.27612 10.7798 8.25999 10.877L7.25999 16.877C7.24383 16.9742 7.24698 17.0736 7.26925 17.1695C7.29151 17.2655 7.33246 17.3561 7.38975 17.4363C7.44705 17.5164 7.51956 17.5845 7.60316 17.6366C7.68676 17.6887 7.77981 17.7238 7.87699 17.74C7.97416 17.7562 8.07357 17.753 8.16954 17.7307C8.2655 17.7085 8.35614 17.6675 8.43627 17.6102C8.51641 17.5529 8.58448 17.4804 8.63659 17.3968C8.6887 17.3132 8.72383 17.2202 8.73999 17.123L9.73999 11.123C9.75616 11.0258 9.75303 10.9264 9.73077 10.8304C9.70852 10.7345 9.66757 10.6438 9.61027 10.5637C9.55297 10.4835 9.48045 10.4155 9.39684 10.3634C9.31323 10.3113 9.22017 10.2761 9.12299 10.26Z" fill="white"/>
</svg>
