<svg width="24" height="24" viewBox="0 0 24 24" fill="none" xmlns="http://www.w3.org/2000/svg">
<path fill-rule="evenodd" clip-rule="evenodd" d="M8.24999 6.015V5C8.24999 4.00544 8.64508 3.05161 9.34834 2.34835C10.0516 1.64509 11.0054 1.25 12 1.25C12.9945 1.25 13.9484 1.64509 14.6516 2.34835C15.3549 3.05161 15.75 4.00544 15.75 5V6.015C17.037 6.054 17.825 6.192 18.426 6.691C19.259 7.383 19.479 8.553 19.918 10.894L20.668 14.894C21.285 18.186 21.593 19.832 20.694 20.916C19.794 22 18.119 22 14.77 22H9.22999C5.87999 22 4.20599 22 3.30599 20.916C2.40599 19.832 2.71599 18.186 3.33199 14.894L4.08199 10.894C4.52199 8.554 4.74099 7.383 5.57399 6.691C6.17499 6.192 6.96299 6.054 8.24999 6.015ZM9.74999 5C9.74999 4.40326 9.98704 3.83097 10.409 3.40901C10.831 2.98705 11.4033 2.75 12 2.75C12.5967 2.75 13.169 2.98705 13.591 3.40901C14.0129 3.83097 14.25 4.40326 14.25 5V6H9.74999V5ZM15.469 10.914C15.546 10.9755 15.6101 11.0517 15.6577 11.138C15.7053 11.2244 15.7354 11.3193 15.7462 11.4172C15.7571 11.5152 15.7485 11.6144 15.721 11.7091C15.6935 11.8037 15.6476 11.8921 15.586 11.969L11.586 16.969C11.52 17.0513 11.4375 17.1188 11.3437 17.167C11.2499 17.2153 11.1469 17.2432 11.0416 17.2489C10.9363 17.2547 10.831 17.2382 10.7325 17.2004C10.634 17.1627 10.5445 17.1046 10.47 17.03L8.46999 15.03C8.33751 14.8878 8.26538 14.6998 8.26881 14.5055C8.27224 14.3112 8.35095 14.1258 8.48837 13.9884C8.62578 13.851 8.81116 13.7723 9.00547 13.7688C9.19977 13.7654 9.38781 13.8375 9.52999 13.97L10.938 15.377L14.414 11.031C14.4755 10.954 14.5517 10.8899 14.638 10.8423C14.7244 10.7947 14.8192 10.7646 14.9172 10.7538C15.0152 10.7429 15.1144 10.7515 15.2091 10.779C15.3037 10.8064 15.3921 10.8523 15.469 10.914Z" fill="white"/>
</svg>
