<svg width="24" height="25" viewBox="0 0 24 25" fill="none" xmlns="http://www.w3.org/2000/svg">
<path d="M21.1429 7.357H8.57143M6.28572 7.357H2.85715M21.1429 18.7856H8.57143M6.28572 18.7856H2.85715M15.4286 13.0713H2.85715M21.1429 13.0713H17.7143M7.42858 5.07129C7.73168 5.07129 8.02237 5.1917 8.2367 5.40602C8.45103 5.62035 8.57143 5.91104 8.57143 6.21415V8.49986C8.57143 8.80297 8.45103 9.09366 8.2367 9.30798C8.02237 9.52231 7.73168 9.64272 7.42858 9.64272C7.12547 9.64272 6.83478 9.52231 6.62045 9.30798C6.40613 9.09366 6.28572 8.80297 6.28572 8.49986V6.21415C6.28572 5.91104 6.40613 5.62035 6.62045 5.40602C6.83478 5.1917 7.12547 5.07129 7.42858 5.07129ZM7.42858 16.4999C7.73168 16.4999 8.02237 16.6203 8.2367 16.8346C8.45103 17.0489 8.57143 17.3396 8.57143 17.6427V19.9284C8.57143 20.2315 8.45103 20.5222 8.2367 20.7366C8.02237 20.9509 7.73168 21.0713 7.42858 21.0713C7.12547 21.0713 6.83478 20.9509 6.62045 20.7366C6.40613 20.5222 6.28572 20.2315 6.28572 19.9284V17.6427C6.28572 17.3396 6.40613 17.0489 6.62045 16.8346C6.83478 16.6203 7.12547 16.4999 7.42858 16.4999ZM16.5714 10.7856C16.8745 10.7856 17.1652 10.906 17.3796 11.1203C17.5939 11.3346 17.7143 11.6253 17.7143 11.9284V14.2141C17.7143 14.5173 17.5939 14.8079 17.3796 15.0223C17.1652 15.2366 16.8745 15.357 16.5714 15.357C16.2683 15.357 15.9776 15.2366 15.7633 15.0223C15.549 14.8079 15.4286 14.5173 15.4286 14.2141V11.9284C15.4286 11.6253 15.549 11.3346 15.7633 11.1203C15.9776 10.906 16.2683 10.7856 16.5714 10.7856Z" stroke="#8F8F8F" stroke-linecap="round" stroke-linejoin="round"/>
</svg>
