<svg width="35" height="35" viewBox="0 0 35 35" fill="none" xmlns="http://www.w3.org/2000/svg">
<path d="M17.5 0.03125C14.045 0.03125 10.6676 1.05577 7.79489 2.97527C4.92217 4.89476 2.68316 7.623 1.36099 10.815C0.0388189 14.007 -0.307121 17.5194 0.366915 20.908C1.04095 24.2966 2.70469 27.4092 5.14774 29.8523C7.59079 32.2953 10.7034 33.9591 14.092 34.6331C17.4806 35.3071 20.993 34.9612 24.185 33.639C27.377 32.3169 30.1053 30.0778 32.0247 27.2051C33.9442 24.3324 34.9688 20.955 34.9688 17.5C34.9639 12.8685 33.1218 8.4281 29.8469 5.15313C26.5719 1.87816 22.1315 0.0361409 17.5 0.03125ZM23.8257 21.9243C23.9506 22.0491 24.0496 22.1974 24.1172 22.3605C24.1847 22.5236 24.2195 22.6984 24.2195 22.875C24.2195 23.0516 24.1847 23.2264 24.1172 23.3895C24.0496 23.5526 23.9506 23.7009 23.8257 23.8257C23.7009 23.9506 23.5526 24.0496 23.3895 24.1172C23.2264 24.1847 23.0516 24.2195 22.875 24.2195C22.6984 24.2195 22.5236 24.1847 22.3605 24.1172C22.1974 24.0496 22.0492 23.9506 21.9243 23.8257L17.5 19.3997L13.0757 23.8257C12.9509 23.9506 12.8026 24.0496 12.6395 24.1172C12.4764 24.1847 12.3016 24.2195 12.125 24.2195C11.9484 24.2195 11.7736 24.1847 11.6105 24.1172C11.4474 24.0496 11.2992 23.9506 11.1743 23.8257C11.0495 23.7009 10.9504 23.5526 10.8829 23.3895C10.8153 23.2264 10.7805 23.0516 10.7805 22.875C10.7805 22.6984 10.8153 22.5236 10.8829 22.3605C10.9504 22.1974 11.0495 22.0491 11.1743 21.9243L15.6003 17.5L11.1743 13.0757C10.9222 12.8236 10.7805 12.4816 10.7805 12.125C10.7805 11.7684 10.9222 11.4264 11.1743 11.1743C11.4264 10.9222 11.7684 10.7805 12.125 10.7805C12.4816 10.7805 12.8236 10.9222 13.0757 11.1743L17.5 15.6003L21.9243 11.1743C22.0492 11.0494 22.1974 10.9504 22.3605 10.8828C22.5236 10.8153 22.6984 10.7805 22.875 10.7805C23.0516 10.7805 23.2264 10.8153 23.3895 10.8828C23.5526 10.9504 23.7009 11.0494 23.8257 11.1743C23.9506 11.2991 24.0496 11.4474 24.1172 11.6105C24.1847 11.7736 24.2195 11.9484 24.2195 12.125C24.2195 12.3016 24.1847 12.4764 24.1172 12.6395C24.0496 12.8026 23.9506 12.9509 23.8257 13.0757L19.3997 17.5L23.8257 21.9243Z" fill="black"/>
</svg>
